<mxfile host="app.diagrams.net" modified="2023-07-12T10:35:29.332Z" agent="Mozilla/5.0 (Windows NT 10.0; Win64; x64) AppleWebKit/537.36 (KHTML, like Gecko) Chrome/114.0.0.0 Safari/537.36" etag="WHD6N9bUr0azHkxY2LB5" version="21.6.2" type="github">
  <diagram name="ページ1" id="mH-jndrM1VOULVVIdmw8">
    <mxGraphModel dx="1348" dy="2332" grid="1" gridSize="10" guides="1" tooltips="1" connect="1" arrows="1" fold="1" page="1" pageScale="1" pageWidth="827" pageHeight="1169" math="0" shadow="0">
      <root>
        <mxCell id="0" />
        <mxCell id="1" parent="0" />
        <mxCell id="I-kPBh3Q4MtgkVy0VhHx-4" style="edgeStyle=orthogonalEdgeStyle;rounded=0;orthogonalLoop=1;jettySize=auto;html=1;exitX=1;exitY=0.5;exitDx=0;exitDy=0;entryX=0;entryY=0.5;entryDx=0;entryDy=0;" edge="1" parent="1" source="I-kPBh3Q4MtgkVy0VhHx-1" target="I-kPBh3Q4MtgkVy0VhHx-3">
          <mxGeometry relative="1" as="geometry" />
        </mxCell>
        <mxCell id="I-kPBh3Q4MtgkVy0VhHx-29" style="edgeStyle=orthogonalEdgeStyle;rounded=0;orthogonalLoop=1;jettySize=auto;html=1;exitX=0.5;exitY=1;exitDx=0;exitDy=0;entryX=0;entryY=0.5;entryDx=0;entryDy=0;" edge="1" parent="1" source="I-kPBh3Q4MtgkVy0VhHx-1" target="I-kPBh3Q4MtgkVy0VhHx-24">
          <mxGeometry relative="1" as="geometry" />
        </mxCell>
        <mxCell id="I-kPBh3Q4MtgkVy0VhHx-64" style="edgeStyle=orthogonalEdgeStyle;rounded=0;orthogonalLoop=1;jettySize=auto;html=1;exitX=0.5;exitY=0;exitDx=0;exitDy=0;entryX=0.5;entryY=1;entryDx=0;entryDy=0;" edge="1" parent="1" source="I-kPBh3Q4MtgkVy0VhHx-1" target="I-kPBh3Q4MtgkVy0VhHx-63">
          <mxGeometry relative="1" as="geometry" />
        </mxCell>
        <mxCell id="I-kPBh3Q4MtgkVy0VhHx-69" style="edgeStyle=orthogonalEdgeStyle;rounded=0;orthogonalLoop=1;jettySize=auto;html=1;exitX=0.5;exitY=0;exitDx=0;exitDy=0;" edge="1" parent="1" source="I-kPBh3Q4MtgkVy0VhHx-1" target="I-kPBh3Q4MtgkVy0VhHx-67">
          <mxGeometry relative="1" as="geometry" />
        </mxCell>
        <mxCell id="I-kPBh3Q4MtgkVy0VhHx-71" style="edgeStyle=orthogonalEdgeStyle;rounded=0;orthogonalLoop=1;jettySize=auto;html=1;exitX=0.5;exitY=0;exitDx=0;exitDy=0;entryX=0.5;entryY=1;entryDx=0;entryDy=0;" edge="1" parent="1" source="I-kPBh3Q4MtgkVy0VhHx-1" target="I-kPBh3Q4MtgkVy0VhHx-70">
          <mxGeometry relative="1" as="geometry" />
        </mxCell>
        <mxCell id="I-kPBh3Q4MtgkVy0VhHx-1" value="Android" style="ellipse;whiteSpace=wrap;html=1;fillColor=#d5e8d4;strokeColor=#82b366;" vertex="1" parent="1">
          <mxGeometry x="280" y="320" width="120" height="80" as="geometry" />
        </mxCell>
        <mxCell id="I-kPBh3Q4MtgkVy0VhHx-12" value="" style="edgeStyle=orthogonalEdgeStyle;rounded=0;orthogonalLoop=1;jettySize=auto;html=1;" edge="1" parent="1" source="I-kPBh3Q4MtgkVy0VhHx-3" target="I-kPBh3Q4MtgkVy0VhHx-11">
          <mxGeometry relative="1" as="geometry" />
        </mxCell>
        <mxCell id="I-kPBh3Q4MtgkVy0VhHx-27" style="edgeStyle=orthogonalEdgeStyle;rounded=0;orthogonalLoop=1;jettySize=auto;html=1;exitX=0.5;exitY=1;exitDx=0;exitDy=0;entryX=0.5;entryY=0;entryDx=0;entryDy=0;" edge="1" parent="1" source="I-kPBh3Q4MtgkVy0VhHx-3" target="I-kPBh3Q4MtgkVy0VhHx-24">
          <mxGeometry relative="1" as="geometry" />
        </mxCell>
        <mxCell id="I-kPBh3Q4MtgkVy0VhHx-45" style="edgeStyle=orthogonalEdgeStyle;rounded=0;orthogonalLoop=1;jettySize=auto;html=1;exitX=0.5;exitY=1;exitDx=0;exitDy=0;entryX=0;entryY=0.5;entryDx=0;entryDy=0;" edge="1" parent="1" source="I-kPBh3Q4MtgkVy0VhHx-3" target="I-kPBh3Q4MtgkVy0VhHx-21">
          <mxGeometry relative="1" as="geometry" />
        </mxCell>
        <mxCell id="I-kPBh3Q4MtgkVy0VhHx-50" style="edgeStyle=orthogonalEdgeStyle;rounded=0;orthogonalLoop=1;jettySize=auto;html=1;exitX=1;exitY=0.5;exitDx=0;exitDy=0;entryX=0;entryY=0.5;entryDx=0;entryDy=0;" edge="1" parent="1" source="I-kPBh3Q4MtgkVy0VhHx-3" target="I-kPBh3Q4MtgkVy0VhHx-5">
          <mxGeometry relative="1" as="geometry" />
        </mxCell>
        <mxCell id="I-kPBh3Q4MtgkVy0VhHx-53" style="edgeStyle=orthogonalEdgeStyle;rounded=0;orthogonalLoop=1;jettySize=auto;html=1;exitX=0.5;exitY=1;exitDx=0;exitDy=0;entryX=0;entryY=0.5;entryDx=0;entryDy=0;" edge="1" parent="1" source="I-kPBh3Q4MtgkVy0VhHx-3" target="I-kPBh3Q4MtgkVy0VhHx-52">
          <mxGeometry relative="1" as="geometry" />
        </mxCell>
        <mxCell id="I-kPBh3Q4MtgkVy0VhHx-62" style="edgeStyle=orthogonalEdgeStyle;rounded=0;orthogonalLoop=1;jettySize=auto;html=1;exitX=0.5;exitY=0;exitDx=0;exitDy=0;entryX=0;entryY=0.5;entryDx=0;entryDy=0;" edge="1" parent="1" source="I-kPBh3Q4MtgkVy0VhHx-3" target="I-kPBh3Q4MtgkVy0VhHx-38">
          <mxGeometry relative="1" as="geometry" />
        </mxCell>
        <mxCell id="I-kPBh3Q4MtgkVy0VhHx-76" style="edgeStyle=orthogonalEdgeStyle;rounded=0;orthogonalLoop=1;jettySize=auto;html=1;exitX=0.5;exitY=0;exitDx=0;exitDy=0;entryX=0.5;entryY=1;entryDx=0;entryDy=0;" edge="1" parent="1" source="I-kPBh3Q4MtgkVy0VhHx-3" target="I-kPBh3Q4MtgkVy0VhHx-58">
          <mxGeometry relative="1" as="geometry">
            <Array as="points">
              <mxPoint x="504" y="30" />
              <mxPoint x="360" y="30" />
            </Array>
          </mxGeometry>
        </mxCell>
        <mxCell id="I-kPBh3Q4MtgkVy0VhHx-77" style="edgeStyle=orthogonalEdgeStyle;rounded=0;orthogonalLoop=1;jettySize=auto;html=1;exitX=0.5;exitY=0;exitDx=0;exitDy=0;entryX=0.5;entryY=1;entryDx=0;entryDy=0;" edge="1" parent="1" source="I-kPBh3Q4MtgkVy0VhHx-3" target="I-kPBh3Q4MtgkVy0VhHx-59">
          <mxGeometry relative="1" as="geometry">
            <Array as="points">
              <mxPoint x="504" y="30" />
              <mxPoint x="230" y="30" />
            </Array>
          </mxGeometry>
        </mxCell>
        <mxCell id="I-kPBh3Q4MtgkVy0VhHx-80" style="edgeStyle=orthogonalEdgeStyle;rounded=0;orthogonalLoop=1;jettySize=auto;html=1;exitX=0.5;exitY=0;exitDx=0;exitDy=0;entryX=0;entryY=0.5;entryDx=0;entryDy=0;" edge="1" parent="1" source="I-kPBh3Q4MtgkVy0VhHx-3" target="I-kPBh3Q4MtgkVy0VhHx-79">
          <mxGeometry relative="1" as="geometry" />
        </mxCell>
        <mxCell id="I-kPBh3Q4MtgkVy0VhHx-82" style="edgeStyle=orthogonalEdgeStyle;rounded=0;orthogonalLoop=1;jettySize=auto;html=1;exitX=0.5;exitY=0;exitDx=0;exitDy=0;entryX=0;entryY=0.5;entryDx=0;entryDy=0;" edge="1" parent="1" source="I-kPBh3Q4MtgkVy0VhHx-3" target="I-kPBh3Q4MtgkVy0VhHx-81">
          <mxGeometry relative="1" as="geometry" />
        </mxCell>
        <mxCell id="I-kPBh3Q4MtgkVy0VhHx-3" value="Server&lt;br&gt;Kotlin/Jarsey" style="ellipse;whiteSpace=wrap;html=1;" vertex="1" parent="1">
          <mxGeometry x="444" y="320" width="120" height="80" as="geometry" />
        </mxCell>
        <mxCell id="I-kPBh3Q4MtgkVy0VhHx-8" value="" style="edgeStyle=orthogonalEdgeStyle;rounded=0;orthogonalLoop=1;jettySize=auto;html=1;" edge="1" parent="1" source="I-kPBh3Q4MtgkVy0VhHx-5" target="I-kPBh3Q4MtgkVy0VhHx-7">
          <mxGeometry relative="1" as="geometry" />
        </mxCell>
        <mxCell id="I-kPBh3Q4MtgkVy0VhHx-5" value="ElasticBeanstalk" style="ellipse;whiteSpace=wrap;html=1;" vertex="1" parent="1">
          <mxGeometry x="810" y="320" width="120" height="80" as="geometry" />
        </mxCell>
        <mxCell id="I-kPBh3Q4MtgkVy0VhHx-10" value="" style="edgeStyle=orthogonalEdgeStyle;rounded=0;orthogonalLoop=1;jettySize=auto;html=1;" edge="1" parent="1" source="I-kPBh3Q4MtgkVy0VhHx-7" target="I-kPBh3Q4MtgkVy0VhHx-9">
          <mxGeometry relative="1" as="geometry" />
        </mxCell>
        <mxCell id="I-kPBh3Q4MtgkVy0VhHx-46" style="edgeStyle=orthogonalEdgeStyle;rounded=0;orthogonalLoop=1;jettySize=auto;html=1;exitX=0.5;exitY=0;exitDx=0;exitDy=0;entryX=0.5;entryY=1;entryDx=0;entryDy=0;" edge="1" parent="1" source="I-kPBh3Q4MtgkVy0VhHx-7" target="I-kPBh3Q4MtgkVy0VhHx-40">
          <mxGeometry relative="1" as="geometry" />
        </mxCell>
        <mxCell id="I-kPBh3Q4MtgkVy0VhHx-73" value="" style="edgeStyle=orthogonalEdgeStyle;rounded=0;orthogonalLoop=1;jettySize=auto;html=1;" edge="1" parent="1" source="I-kPBh3Q4MtgkVy0VhHx-7" target="I-kPBh3Q4MtgkVy0VhHx-72">
          <mxGeometry relative="1" as="geometry" />
        </mxCell>
        <mxCell id="I-kPBh3Q4MtgkVy0VhHx-7" value="Fargate" style="ellipse;whiteSpace=wrap;html=1;" vertex="1" parent="1">
          <mxGeometry x="960" y="320" width="120" height="80" as="geometry" />
        </mxCell>
        <mxCell id="I-kPBh3Q4MtgkVy0VhHx-9" value="Terraform" style="ellipse;whiteSpace=wrap;html=1;" vertex="1" parent="1">
          <mxGeometry x="1040" y="200" width="120" height="80" as="geometry" />
        </mxCell>
        <mxCell id="I-kPBh3Q4MtgkVy0VhHx-16" value="" style="edgeStyle=orthogonalEdgeStyle;rounded=0;orthogonalLoop=1;jettySize=auto;html=1;" edge="1" parent="1" source="I-kPBh3Q4MtgkVy0VhHx-11" target="I-kPBh3Q4MtgkVy0VhHx-14">
          <mxGeometry relative="1" as="geometry" />
        </mxCell>
        <mxCell id="I-kPBh3Q4MtgkVy0VhHx-11" value="oncall" style="ellipse;whiteSpace=wrap;html=1;" vertex="1" parent="1">
          <mxGeometry x="444" y="-80" width="120" height="80" as="geometry" />
        </mxCell>
        <mxCell id="I-kPBh3Q4MtgkVy0VhHx-18" value="" style="edgeStyle=orthogonalEdgeStyle;rounded=0;orthogonalLoop=1;jettySize=auto;html=1;" edge="1" parent="1" source="I-kPBh3Q4MtgkVy0VhHx-13" target="I-kPBh3Q4MtgkVy0VhHx-17">
          <mxGeometry relative="1" as="geometry" />
        </mxCell>
        <mxCell id="I-kPBh3Q4MtgkVy0VhHx-13" value="Logstash" style="ellipse;whiteSpace=wrap;html=1;" vertex="1" parent="1">
          <mxGeometry x="444" y="-300" width="120" height="80" as="geometry" />
        </mxCell>
        <mxCell id="I-kPBh3Q4MtgkVy0VhHx-15" value="" style="edgeStyle=orthogonalEdgeStyle;rounded=0;orthogonalLoop=1;jettySize=auto;html=1;" edge="1" parent="1" source="I-kPBh3Q4MtgkVy0VhHx-14" target="I-kPBh3Q4MtgkVy0VhHx-13">
          <mxGeometry relative="1" as="geometry" />
        </mxCell>
        <mxCell id="I-kPBh3Q4MtgkVy0VhHx-20" style="edgeStyle=orthogonalEdgeStyle;rounded=0;orthogonalLoop=1;jettySize=auto;html=1;entryX=0.5;entryY=1;entryDx=0;entryDy=0;" edge="1" parent="1" source="I-kPBh3Q4MtgkVy0VhHx-14" target="I-kPBh3Q4MtgkVy0VhHx-17">
          <mxGeometry relative="1" as="geometry" />
        </mxCell>
        <mxCell id="I-kPBh3Q4MtgkVy0VhHx-14" value="RDS&lt;br&gt;Performance Insight" style="ellipse;whiteSpace=wrap;html=1;" vertex="1" parent="1">
          <mxGeometry x="444" y="-190" width="120" height="80" as="geometry" />
        </mxCell>
        <mxCell id="I-kPBh3Q4MtgkVy0VhHx-17" value="Slow Query" style="ellipse;whiteSpace=wrap;html=1;" vertex="1" parent="1">
          <mxGeometry x="600" y="-300" width="120" height="80" as="geometry" />
        </mxCell>
        <mxCell id="I-kPBh3Q4MtgkVy0VhHx-43" value="" style="edgeStyle=orthogonalEdgeStyle;rounded=0;orthogonalLoop=1;jettySize=auto;html=1;" edge="1" parent="1" source="I-kPBh3Q4MtgkVy0VhHx-21" target="I-kPBh3Q4MtgkVy0VhHx-42">
          <mxGeometry relative="1" as="geometry" />
        </mxCell>
        <mxCell id="I-kPBh3Q4MtgkVy0VhHx-21" value="Gradle Plugin" style="ellipse;whiteSpace=wrap;html=1;" vertex="1" parent="1">
          <mxGeometry x="590" y="510" width="120" height="80" as="geometry" />
        </mxCell>
        <mxCell id="I-kPBh3Q4MtgkVy0VhHx-34" value="" style="edgeStyle=orthogonalEdgeStyle;rounded=0;orthogonalLoop=1;jettySize=auto;html=1;" edge="1" parent="1" source="I-kPBh3Q4MtgkVy0VhHx-24" target="I-kPBh3Q4MtgkVy0VhHx-30">
          <mxGeometry relative="1" as="geometry" />
        </mxCell>
        <mxCell id="I-kPBh3Q4MtgkVy0VhHx-35" style="edgeStyle=orthogonalEdgeStyle;rounded=0;orthogonalLoop=1;jettySize=auto;html=1;exitX=0.5;exitY=1;exitDx=0;exitDy=0;entryX=0.5;entryY=0;entryDx=0;entryDy=0;" edge="1" parent="1" source="I-kPBh3Q4MtgkVy0VhHx-24" target="I-kPBh3Q4MtgkVy0VhHx-32">
          <mxGeometry relative="1" as="geometry" />
        </mxCell>
        <mxCell id="I-kPBh3Q4MtgkVy0VhHx-36" style="edgeStyle=orthogonalEdgeStyle;rounded=0;orthogonalLoop=1;jettySize=auto;html=1;exitX=0.5;exitY=1;exitDx=0;exitDy=0;" edge="1" parent="1" source="I-kPBh3Q4MtgkVy0VhHx-24" target="I-kPBh3Q4MtgkVy0VhHx-31">
          <mxGeometry relative="1" as="geometry" />
        </mxCell>
        <mxCell id="I-kPBh3Q4MtgkVy0VhHx-24" value="CI" style="ellipse;whiteSpace=wrap;html=1;" vertex="1" parent="1">
          <mxGeometry x="444" y="590" width="120" height="80" as="geometry" />
        </mxCell>
        <mxCell id="I-kPBh3Q4MtgkVy0VhHx-30" value="GitHub Actions" style="ellipse;whiteSpace=wrap;html=1;" vertex="1" parent="1">
          <mxGeometry x="444" y="710" width="120" height="80" as="geometry" />
        </mxCell>
        <mxCell id="I-kPBh3Q4MtgkVy0VhHx-31" value="CircleCI" style="ellipse;whiteSpace=wrap;html=1;" vertex="1" parent="1">
          <mxGeometry x="595.5" y="710" width="120" height="80" as="geometry" />
        </mxCell>
        <mxCell id="I-kPBh3Q4MtgkVy0VhHx-32" value="Bitrise" style="ellipse;whiteSpace=wrap;html=1;" vertex="1" parent="1">
          <mxGeometry x="292.5" y="710" width="120" height="80" as="geometry" />
        </mxCell>
        <mxCell id="I-kPBh3Q4MtgkVy0VhHx-55" value="" style="edgeStyle=orthogonalEdgeStyle;rounded=0;orthogonalLoop=1;jettySize=auto;html=1;" edge="1" parent="1" source="I-kPBh3Q4MtgkVy0VhHx-38" target="I-kPBh3Q4MtgkVy0VhHx-54">
          <mxGeometry relative="1" as="geometry" />
        </mxCell>
        <mxCell id="I-kPBh3Q4MtgkVy0VhHx-57" style="edgeStyle=orthogonalEdgeStyle;rounded=0;orthogonalLoop=1;jettySize=auto;html=1;exitX=1;exitY=0.5;exitDx=0;exitDy=0;entryX=0;entryY=0.5;entryDx=0;entryDy=0;" edge="1" parent="1" source="I-kPBh3Q4MtgkVy0VhHx-38" target="I-kPBh3Q4MtgkVy0VhHx-56">
          <mxGeometry relative="1" as="geometry" />
        </mxCell>
        <mxCell id="I-kPBh3Q4MtgkVy0VhHx-38" value="Microservice" style="ellipse;whiteSpace=wrap;html=1;" vertex="1" parent="1">
          <mxGeometry x="595.5" y="50" width="120" height="80" as="geometry" />
        </mxCell>
        <mxCell id="I-kPBh3Q4MtgkVy0VhHx-40" value="ECR" style="ellipse;whiteSpace=wrap;html=1;" vertex="1" parent="1">
          <mxGeometry x="890" y="200" width="120" height="80" as="geometry" />
        </mxCell>
        <mxCell id="I-kPBh3Q4MtgkVy0VhHx-42" value="Swift SDK Generator" style="ellipse;whiteSpace=wrap;html=1;" vertex="1" parent="1">
          <mxGeometry x="740" y="510" width="120" height="80" as="geometry" />
        </mxCell>
        <mxCell id="I-kPBh3Q4MtgkVy0VhHx-52" value="GraphQL" style="ellipse;whiteSpace=wrap;html=1;" vertex="1" parent="1">
          <mxGeometry x="590" y="410" width="120" height="80" as="geometry" />
        </mxCell>
        <mxCell id="I-kPBh3Q4MtgkVy0VhHx-54" value="gRPC" style="ellipse;whiteSpace=wrap;html=1;" vertex="1" parent="1">
          <mxGeometry x="761.5" y="50" width="120" height="80" as="geometry" />
        </mxCell>
        <mxCell id="I-kPBh3Q4MtgkVy0VhHx-56" value="Go" style="ellipse;whiteSpace=wrap;html=1;" vertex="1" parent="1">
          <mxGeometry x="761.5" y="-60" width="120" height="80" as="geometry" />
        </mxCell>
        <mxCell id="I-kPBh3Q4MtgkVy0VhHx-58" value="DataDog" style="ellipse;whiteSpace=wrap;html=1;" vertex="1" parent="1">
          <mxGeometry x="300" y="-80" width="120" height="80" as="geometry" />
        </mxCell>
        <mxCell id="I-kPBh3Q4MtgkVy0VhHx-59" value="NewRelic" style="ellipse;whiteSpace=wrap;html=1;" vertex="1" parent="1">
          <mxGeometry x="170" y="-80" width="120" height="80" as="geometry" />
        </mxCell>
        <mxCell id="I-kPBh3Q4MtgkVy0VhHx-66" style="edgeStyle=orthogonalEdgeStyle;rounded=0;orthogonalLoop=1;jettySize=auto;html=1;exitX=0.5;exitY=0;exitDx=0;exitDy=0;entryX=0.5;entryY=1;entryDx=0;entryDy=0;" edge="1" parent="1" source="I-kPBh3Q4MtgkVy0VhHx-63" target="I-kPBh3Q4MtgkVy0VhHx-65">
          <mxGeometry relative="1" as="geometry" />
        </mxCell>
        <mxCell id="I-kPBh3Q4MtgkVy0VhHx-63" value="Firebase&lt;br&gt;Analytics" style="ellipse;whiteSpace=wrap;html=1;" vertex="1" parent="1">
          <mxGeometry x="280" y="200" width="120" height="80" as="geometry" />
        </mxCell>
        <mxCell id="I-kPBh3Q4MtgkVy0VhHx-65" value="Big Query" style="ellipse;whiteSpace=wrap;html=1;" vertex="1" parent="1">
          <mxGeometry x="280" y="80" width="120" height="80" as="geometry" />
        </mxCell>
        <mxCell id="I-kPBh3Q4MtgkVy0VhHx-67" value="Firebase&lt;br&gt;Crashlytics" style="ellipse;whiteSpace=wrap;html=1;" vertex="1" parent="1">
          <mxGeometry x="140" y="200" width="120" height="80" as="geometry" />
        </mxCell>
        <mxCell id="I-kPBh3Q4MtgkVy0VhHx-70" value="Firebase&lt;br&gt;RemoteConfig" style="ellipse;whiteSpace=wrap;html=1;" vertex="1" parent="1">
          <mxGeometry y="200" width="120" height="80" as="geometry" />
        </mxCell>
        <mxCell id="I-kPBh3Q4MtgkVy0VhHx-72" value="Graviton" style="ellipse;whiteSpace=wrap;html=1;" vertex="1" parent="1">
          <mxGeometry x="960" y="430" width="120" height="80" as="geometry" />
        </mxCell>
        <mxCell id="I-kPBh3Q4MtgkVy0VhHx-79" value="MySQL" style="ellipse;whiteSpace=wrap;html=1;" vertex="1" parent="1">
          <mxGeometry x="564" y="250" width="120" height="80" as="geometry" />
        </mxCell>
        <mxCell id="I-kPBh3Q4MtgkVy0VhHx-81" value="Redis" style="ellipse;whiteSpace=wrap;html=1;" vertex="1" parent="1">
          <mxGeometry x="564" y="160" width="120" height="80" as="geometry" />
        </mxCell>
      </root>
    </mxGraphModel>
  </diagram>
</mxfile>
